<svg id="visual" viewBox="0 0 900 600" width="900" height="600" xmlns="http://www.w3.org/2000/svg" xmlns:xlink="http://www.w3.org/1999/xlink" version="1.1"><rect x="0" y="0" width="900" height="600" fill="#001220"></rect><path d="M0 430L21.5 417.8C43 405.7 86 381.3 128.8 380.3C171.7 379.3 214.3 401.7 257.2 403.2C300 404.7 343 385.3 385.8 378.7C428.7 372 471.3 378 514.2 376.7C557 375.3 600 366.7 642.8 365.8C685.7 365 728.3 372 771.2 370.7C814 369.3 857 359.7 878.5 354.8L900 350L900 601L878.5 601C857 601 814 601 771.2 601C728.3 601 685.7 601 642.8 601C600 601 557 601 514.2 601C471.3 601 428.7 601 385.8 601C343 601 300 601 257.2 601C214.3 601 171.7 601 128.8 601C86 601 43 601 21.5 601L0 601Z" fill="#0e131e"></path><path d="M0 425L21.5 432.7C43 440.3 86 455.7 128.8 464.7C171.7 473.7 214.3 476.3 257.2 466C300 455.7 343 432.3 385.8 418.8C428.7 405.3 471.3 401.7 514.2 406.5C557 411.3 600 424.7 642.8 431.7C685.7 438.7 728.3 439.3 771.2 435.8C814 432.3 857 424.7 878.5 420.8L900 417L900 601L878.5 601C857 601 814 601 771.2 601C728.3 601 685.7 601 642.8 601C600 601 557 601 514.2 601C471.3 601 428.7 601 385.8 601C343 601 300 601 257.2 601C214.3 601 171.7 601 128.8 601C86 601 43 601 21.5 601L0 601Z" fill="#101622"></path><path d="M0 451L21.5 451.5C43 452 86 453 128.8 458.3C171.7 463.7 214.3 473.3 257.2 479.5C300 485.7 343 488.3 385.8 483.2C428.7 478 471.3 465 514.2 458.8C557 452.7 600 453.3 642.8 461.7C685.7 470 728.3 486 771.2 494.5C814 503 857 504 878.5 504.5L900 505L900 601L878.5 601C857 601 814 601 771.2 601C728.3 601 685.7 601 642.8 601C600 601 557 601 514.2 601C471.3 601 428.7 601 385.8 601C343 601 300 601 257.2 601C214.3 601 171.7 601 128.8 601C86 601 43 601 21.5 601L0 601Z" fill="#111827"></path><path d="M0 528L21.5 528.8C43 529.7 86 531.3 128.8 523.5C171.7 515.7 214.3 498.3 257.2 497C300 495.7 343 510.3 385.8 519.3C428.7 528.3 471.3 531.7 514.2 531.3C557 531 600 527 642.8 523.7C685.7 520.3 728.3 517.7 771.2 514.7C814 511.7 857 508.3 878.5 506.7L900 505L900 601L878.5 601C857 601 814 601 771.2 601C728.3 601 685.7 601 642.8 601C600 601 557 601 514.2 601C471.3 601 428.7 601 385.8 601C343 601 300 601 257.2 601C214.3 601 171.7 601 128.8 601C86 601 43 601 21.5 601L0 601Z" fill="#1d273d"></path><path d="M0 559L21.5 553.5C43 548 86 537 128.8 533.2C171.7 529.3 214.3 532.7 257.2 539.7C300 546.7 343 557.3 385.8 560.3C428.7 563.3 471.3 558.7 514.2 552C557 545.3 600 536.7 642.8 533C685.7 529.3 728.3 530.7 771.2 536.5C814 542.3 857 552.7 878.5 557.8L900 563L900 601L878.5 601C857 601 814 601 771.2 601C728.3 601 685.7 601 642.8 601C600 601 557 601 514.2 601C471.3 601 428.7 601 385.8 601C343 601 300 601 257.2 601C214.3 601 171.7 601 128.8 601C86 601 43 601 21.5 601L0 601Z" fill="#2a3754"></path></svg>