<svg xmlns="http://www.w3.org/2000/svg"  viewBox="0 0 256 256" width="128px" height="128px"><path fill="#f0c020" d="M248,96.655a136.66,136.66,0,0,1-.13,63.218,26.891,26.891,0,0,1-26.194,20.744H180.6V221.7c0,11.669-7.588,23.1-21.326,26.331a136.635,136.635,0,0,1-62.565.006C83,244.814,75.351,233.435,75.351,221.7V154.9a26.911,26.911,0,0,1,26.911-26.911h51.427A26.912,26.912,0,0,0,180.6,101.081V75.368h41.078A26.892,26.892,0,0,1,248,96.655Z"/><path fill="#72c1e8" d="M180.6,34.292v66.789a26.912,26.912,0,0,1-26.912,26.912H102.262A26.911,26.911,0,0,0,75.351,154.9v25.713H34.269a26.891,26.891,0,0,1-26.19-20.728,136.691,136.691,0,0,1,0-63.788A26.892,26.892,0,0,1,34.271,75.368h41.08V34.289A26.9,26.9,0,0,1,96.639,7.967a136.645,136.645,0,0,1,62.545-.028C172.829,11.141,180.6,22.413,180.6,34.292Z"/><circle cx="106.102" cy="42.13" r="8.41" fill="#fff" transform="rotate(-22.5 106.1 42.13)"/><circle cx="149.849" cy="213.855" r="8.41" fill="#fff"/><path fill="#f9e5af" d="M169.975,224.765a2.5,2.5,0,0,1-2.5-2.5v-4.854a2.5,2.5,0,0,1,5,0v4.854A2.5,2.5,0,0,1,169.975,224.765Zm0-14.854a2.5,2.5,0,0,1-2.5-2.5V166.617a2.5,2.5,0,0,1,2.5-2.5h51.7a10.355,10.355,0,0,0,10.132-8.019,120.884,120.884,0,0,0,0-56.24,10.34,10.34,0,0,0-10.125-7.99,2.5,2.5,0,0,1,0-5c6.723,0,13.2,4.237,15.116,12.37a125.875,125.875,0,0,1-.118,58,15.333,15.333,0,0,1-15,11.877h-49.2v38.294A2.5,2.5,0,0,1,169.975,209.911Z"/><path fill="#c5e5ff" d="M61.351,169.117a2.5,2.5,0,0,1-2.5-2.5v-4.481a2.5,2.5,0,0,1,5,0v4.481A2.5,2.5,0,0,1,61.351,169.117Zm-.074-14.484a2.5,2.5,0,0,1-2.327-2.661,43.51,43.51,0,0,1,43.312-40.48h51.427A10.422,10.422,0,0,0,164.1,101.081V34.292a10.351,10.351,0,0,0-8.013-10.131L155.416,24a2.5,2.5,0,0,1,1.14-4.868l.671.157a15.331,15.331,0,0,1,11.873,15v66.789a15.428,15.428,0,0,1-15.411,15.411H102.262a38.5,38.5,0,0,0-38.324,35.814A2.5,2.5,0,0,1,61.277,154.633Z"/><path d="M250.3,95.514a29.435,29.435,0,0,0-28.62-22.65h-38.59V61.294a2.5,2.5,0,0,0-4.99-.02.035.035,0,0,0-.01.02v39.79a24.5,24.5,0,0,1-24.41,24.41h-51.42a29.388,29.388,0,0,0-29.41,29.41v23.21H34.274a24.281,24.281,0,0,1-23.76-18.8,135.341,135.341,0,0,1-3.02-17.77,2.5,2.5,0,0,0-4.98.51,140.184,140.184,0,0,0,3.13,18.41,29.406,29.406,0,0,0,28.63,22.65h38.58v38.58a29.409,29.409,0,0,0,23.22,28.76c4.676.754,28.643,7.972,63.99-.04a29.427,29.427,0,0,0,23.04-28.72v-38.58h12.01a2.5,2.5,0,0,0,0-5h-67.14a2.5,2.5,0,0,0,0,5H178.1v38.58a24.292,24.292,0,0,1-19.4,23.9,134.7,134.7,0,0,1-61.42.01c-12.655-3-19.43-13.259-19.43-23.91V154.9a24.489,24.489,0,0,1,24.41-24.41h51.43a29.42,29.42,0,0,0,29.41-29.41V77.864h38.58a24.289,24.289,0,0,1,23.8,19.03,3.383,3.383,0,0,1,.08.34c5.083,21.6,4.421,44.5-.13,62.07a24.279,24.279,0,0,1-23.76,18.81h-6.56a2.5,2.5,0,0,0,0,5h6.56a29.4,29.4,0,0,0,28.63-22.67C256.519,134.245,254.206,116.778,250.3,95.514Z"/><circle cx="205.114" cy="180.614" r="2.5"/><path d="M180.6,48.794a2.5,2.5,0,1,0,2.49,2.5A2.509,2.509,0,0,0,180.6,48.794Z"/><path d="M4.444,124.324a2.5,2.5,0,0,0,2.5-2.37v-.02a134.257,134.257,0,0,1,3.57-25.26,24.279,24.279,0,0,1,23.76-18.81h93.7a2.5,2.5,0,0,0,0-5H77.854V34.294A24.282,24.282,0,0,1,97.214,10.4c21.223-5,43.46-4.493,61.6.02a24.3,24.3,0,0,1,19.28,23.87v7a2.505,2.505,0,0,0,5.01,0l-.01-7c0-12.964-8.506-25.332-23.34-28.79a139.672,139.672,0,0,0-63.69.03,29.427,29.427,0,0,0-23.21,28.76v38.57H34.274c-12.832,0-25.245,8.387-28.78,23.29a140.313,140.313,0,0,0-3.55,25.56A2.5,2.5,0,0,0,4.444,124.324Z"/><path d="M4.424,134.324a2.508,2.508,0,0,0,2.43-2.57,2.471,2.471,0,0,0-2.57-2.43,2.5,2.5,0,1,0,.14,5Z"/><path d="M95.192,42.13A10.91,10.91,0,1,0,106.1,31.22,10.922,10.922,0,0,0,95.192,42.13Zm16.819,0a5.91,5.91,0,1,1-5.909-5.91A5.916,5.916,0,0,1,112.011,42.13Z"/><path d="M160.759,213.856a10.91,10.91,0,1,0-10.91,10.909A10.922,10.922,0,0,0,160.759,213.856Zm-16.82,0a5.91,5.91,0,1,1,5.91,5.909A5.917,5.917,0,0,1,143.939,213.856Z"/></svg>